<?xml version="1.0" standalone="no"?><!DOCTYPE svg PUBLIC "-//W3C//DTD SVG 1.1//EN" "http://www.w3.org/Graphics/SVG/1.1/DTD/svg11.dtd"><svg t="1763635429041" class="icon" viewBox="0 0 1024 1024" version="1.1" xmlns="http://www.w3.org/2000/svg" p-id="27602" width="200" height="200" xmlns:xlink="http://www.w3.org/1999/xlink"><path d="M128 768h256V512h64V448h64V384H448V320H128v64H64v320h64v64z m0-256h64v64H128V512z" fill="#fcdd64" p-id="27603" data-spm-anchor-id="a313x.search_index.0.i40.63093a812CeqS8" class=""></path><path d="M576 320V256h64V192H512v64H448v64h64zM640 128v64h64v64h-64v192h64V320h64V256h64V192h64V64h-192v64z" fill="#561811" p-id="27604"></path><path d="M896 448H512v64H448v384h64v64h384v-64h64V512h-64V448z m-320 326.4H512v-64h64v64z" fill="#836bfa" p-id="27605" data-spm-anchor-id="a313x.search_index.0.i41.63093a812CeqS8" class=""></path></svg>